<?xml version="1.0" encoding="iso-8859-1"?>
<!-- Generator: Adobe Illustrator 19.0.0, SVG Export Plug-In . SVG Version: 6.00 Build 0)  -->
<svg version="1.1" id="Capa_1" xmlns="http://www.w3.org/2000/svg" xmlns:xlink="http://www.w3.org/1999/xlink" x="0px" y="0px"
	 viewBox="0 0 504.911 504.911" style="enable-background:new 0 0 504.911 504.911;" xml:space="preserve">
<circle style="fill:#E1E6E8;" cx="252.062" cy="252.062" r="251.274"/>
<g>
	<rect x="11.815" y="9.452" style="fill:#183651;" width="15.754" height="15.754"/>
	<rect x="11.815" y="53.563" style="fill:#183651;" width="15.754" height="15.754"/>
	<rect x="11.815" y="96.886" style="fill:#183651;" width="15.754" height="15.754"/>
	<rect x="11.815" y="140.997" style="fill:#183651;" width="15.754" height="15.754"/>
	<rect x="11.815" y="185.108" style="fill:#183651;" width="15.754" height="15.754"/>
	<rect x="11.815" y="228.431" style="fill:#183651;" width="15.754" height="15.754"/>
	<rect x="11.815" y="272.542" style="fill:#183651;" width="15.754" height="15.754"/>
	<rect x="11.815" y="316.652" style="fill:#183651;" width="15.754" height="15.754"/>
	<rect x="322.166" y="9.452" style="fill:#183651;" width="15.754" height="15.754"/>
	<rect x="278.055" y="9.452" style="fill:#183651;" width="15.754" height="15.754"/>
	<rect x="234.732" y="9.452" style="fill:#183651;" width="15.754" height="15.754"/>
	<rect x="190.622" y="9.452" style="fill:#183651;" width="15.754" height="15.754"/>
	<rect x="146.511" y="9.452" style="fill:#183651;" width="15.754" height="15.754"/>
	<rect x="103.188" y="9.452" style="fill:#183651;" width="15.754" height="15.754"/>
	<rect x="59.077" y="9.452" style="fill:#183651;" width="15.754" height="15.754"/>
</g>
<path style="fill:#4EBD9E;" d="M355.249,345.797H148.874V241.034c0-37.809,30.72-69.317,69.317-69.317h69.317
	c37.809,0,69.317,30.72,69.317,69.317v104.763H355.249z"/>
<path style="fill:#183651;" d="M355.249,353.674H148.874c-4.726,0-7.877-3.151-7.877-7.877V241.034
	c0-42.535,34.658-77.194,77.194-77.194h69.317c42.535,0,77.194,34.658,77.194,77.194v104.763
	C363.126,349.735,359.975,353.674,355.249,353.674z M156.751,337.92H348.16v-96.886c0-33.871-27.569-61.44-61.44-61.44h-69.317
	c-33.871,0-61.44,27.569-61.44,61.44v96.886H156.751z"/>
<g>
	<path style="fill:#FFFFFF;" d="M180.382,314.289v-73.255c0-20.48,16.542-37.809,37.809-37.809h69.317
		c20.48,0,37.809,16.542,37.809,37.809v73.255H180.382z"/>
	<polygon style="fill:#FFFFFF;" points="286.72,171.717 217.403,171.717 252.062,243.397 	"/>
</g>
<path id="SVGCleanerId_0" style="fill:#183651;" d="M252.062,251.274c-3.151,0-5.514-1.575-7.089-4.726l-34.658-71.68
	c-0.788-2.363-0.788-5.514,0.788-7.877s3.938-3.938,6.302-3.938h69.317c2.363,0,5.514,1.575,6.302,3.938
	c1.575,2.363,1.575,5.514,0.788,7.877l-34.658,71.68C257.575,249.698,255.212,251.274,252.062,251.274z M230.006,179.594
	l22.055,45.686l22.055-45.686H230.006z"/>
<polygon style="fill:#FFFFFF;" points="286.72,171.717 217.403,171.717 252.062,243.397 "/>
<g>
	<path id="SVGCleanerId_0_1_" style="fill:#183651;" d="M252.062,251.274c-3.151,0-5.514-1.575-7.089-4.726l-34.658-71.68
		c-0.788-2.363-0.788-5.514,0.788-7.877s3.938-3.938,6.302-3.938h69.317c2.363,0,5.514,1.575,6.302,3.938
		c1.575,2.363,1.575,5.514,0.788,7.877l-34.658,71.68C257.575,249.698,255.212,251.274,252.062,251.274z M230.006,179.594
		l22.055,45.686l22.055-45.686H230.006z"/>
</g>
<circle style="fill:#FFFFFF;" cx="252.062" cy="114.215" r="57.502"/>
<path style="fill:#183651;" d="M252.062,179.594c-36.234,0-65.378-29.145-65.378-65.378s29.145-65.378,65.378-65.378
	s65.378,29.145,65.378,65.378S288.295,179.594,252.062,179.594z M252.062,64.591c-27.569,0-49.625,22.055-49.625,49.625
	s22.055,49.625,49.625,49.625s49.625-22.055,49.625-49.625S279.631,64.591,252.062,64.591z"/>
<rect x="109.489" y="345.797" style="fill:#FFFFFF;" width="285.145" height="38.597"/>
<g>
	<path style="fill:#183651;" d="M394.634,392.271H109.489c-4.726,0-7.877-3.151-7.877-7.877v-38.597
		c0-4.726,3.151-7.877,7.877-7.877h285.145c4.726,0,7.877,3.151,7.877,7.877v38.597C402.511,388.332,399.36,392.271,394.634,392.271
		z M117.366,376.517h269.391v-22.843H117.366V376.517z"/>
	<path style="fill:#183651;" d="M252.062,504.911c-4.726,0-7.877-3.151-7.877-7.877v-112.64c0-4.726,3.151-7.877,7.877-7.877
		c4.726,0,7.877,3.151,7.877,7.877v112.64C259.938,501.76,256.788,504.911,252.062,504.911z"/>
</g>
<path style="fill:#FFFFFF;" d="M428.505,8.665c-37.022,0-67.742,29.932-67.742,67.742c0,10.24,2.363,20.48,6.302,29.145
	l-10.24,42.535l42.535-10.24c8.665,3.938,18.905,6.302,29.145,6.302c37.022,0,67.742-29.932,67.742-67.742
	C495.458,38.597,465.526,8.665,428.505,8.665z"/>
<path style="fill:#183651;" d="M351.311,152.812c-1.575-1.575-2.363-4.726-2.363-7.089l10.24-40.172
	c-3.938-9.452-6.302-19.692-6.302-29.932C352.886,33.871,386.757,0,428.505,0s75.618,33.871,75.618,75.618
	s-33.871,75.618-75.618,75.618c-10.24,0-20.48-2.363-29.932-6.302l-40.172,10.24C356.037,155.963,352.886,155.175,351.311,152.812z
	 M428.505,16.542c-33.083,0-59.865,26.782-59.865,59.865c0,8.665,1.575,17.329,5.514,25.206c0.788,1.575,0.788,3.151,0.788,5.514
	l-7.089,29.932l29.932-7.089c1.575-0.788,3.938,0,5.514,0.788c7.877,3.938,16.542,5.514,25.206,5.514
	c33.083,0,59.865-26.782,59.865-59.865C487.582,43.323,460.8,16.542,428.505,16.542z"/>
<path style="fill:#2AA0DA;" d="M364.702,98.462c0.788,2.363,1.575,4.726,3.151,7.089l-10.24,42.535l42.535-10.24
	c8.665,3.938,18.905,6.302,29.145,6.302c29.145,0,54.351-18.905,63.803-44.898"/>
<path style="fill:#183651;" d="M351.311,152.812c-1.575-1.575-2.363-4.726-2.363-7.089l10.24-40.172
	c-0.788-1.575-1.575-3.151-1.575-4.726c-1.575-3.938,0.788-8.665,4.726-10.24c3.938-1.575,8.665,0.788,10.24,4.726
	c0.788,2.363,1.575,3.938,2.363,6.302c0.788,1.575,0.788,3.151,0.788,5.514l-7.089,29.932l29.932-7.089
	c1.575-0.788,3.938,0,5.514,0.788c7.877,3.938,16.542,5.514,25.206,5.514c25.206,0,48.049-15.754,55.926-40.172
	c1.575-3.938,6.302-6.302,10.24-4.726c3.938,1.575,6.302,6.302,4.726,10.24c-10.24,29.932-39.385,50.412-70.892,50.412
	c-10.24,0-20.48-2.363-29.932-6.302l-40.96,9.452C356.037,155.963,352.886,155.175,351.311,152.812z"/>
<path style="fill:#2AA0DA;" d="M490.732,51.988c-9.452-25.206-33.871-43.323-63.015-43.323c-28.357,0-52.775,18.117-63.015,43.323"
	/>
<path style="fill:#183651;" d="M490.732,59.865c-3.151,0-6.302-1.575-7.089-4.726c-8.665-22.843-30.72-37.809-55.138-37.809
	s-46.474,14.966-55.138,37.809c-1.575,3.938-6.302,6.302-10.24,4.726c-4.726-2.363-6.302-7.089-4.726-11.028
	c11.028-29.145,38.597-48.049,70.105-48.049s59.077,18.905,70.105,48.049c1.575,3.938-0.788,8.665-4.726,10.24
	C493.095,59.077,492.308,59.865,490.732,59.865z"/>
<g>
	<circle style="fill:#E1E6E8;" cx="398.572" cy="75.618" r="9.452"/>
	<circle style="fill:#E1E6E8;" cx="428.505" cy="75.618" r="9.452"/>
	<circle style="fill:#E1E6E8;" cx="459.225" cy="75.618" r="9.452"/>
</g>
<circle style="fill:#FFFFFF;" cx="435.594" cy="398.572" r="29.932"/>
<path style="fill:#183651;" d="M435.594,436.382c-20.48,0-37.809-17.329-37.809-37.809c0-20.48,17.329-37.809,37.809-37.809
	c20.48,0,37.809,17.329,37.809,37.809C472.615,419.052,456.074,436.382,435.594,436.382z M435.594,376.517
	c-11.815,0-22.055,10.24-22.055,22.055c0,11.815,10.24,22.055,22.055,22.055c11.815,0,22.055-10.24,22.055-22.055
	C456.862,385.969,447.409,376.517,435.594,376.517z"/>
<path style="fill:#FCBD5E;" d="M435.594,428.505c-33.871,0-61.44,35.446-61.44,68.529h122.092
	C496.246,463.163,468.677,428.505,435.594,428.505z"/>
<path style="fill:#183651;" d="M496.246,504.911H374.154c-4.726,0-7.877-3.151-7.877-7.877c0-36.234,29.145-76.406,69.317-76.406
	s69.317,40.172,69.317,76.406C504.123,501.76,500.972,504.911,496.246,504.911z M382.818,489.157h105.551
	c-3.938-25.994-25.206-52.775-52.775-52.775C408.025,436.382,385.969,463.163,382.818,489.157z"/>
<circle style="fill:#FFFFFF;" cx="313.502" cy="398.572" r="29.932"/>
<path style="fill:#183651;" d="M313.502,436.382c-20.48,0-37.809-17.329-37.809-37.809c0-20.48,17.329-37.809,37.809-37.809
	c20.48,0,37.809,17.329,37.809,37.809C350.523,419.052,333.982,436.382,313.502,436.382z M313.502,376.517
	c-11.815,0-22.055,10.24-22.055,22.055c0,11.815,10.24,22.055,22.055,22.055c11.815,0,22.055-10.24,22.055-22.055
	C334.769,385.969,325.317,376.517,313.502,376.517z"/>
<path style="fill:#FCBD5E;" d="M313.502,428.505c-33.871,0-61.44,35.446-61.44,68.529h122.092
	C374.154,463.163,346.585,428.505,313.502,428.505z"/>
<path style="fill:#183651;" d="M374.154,504.911H252.062c-4.726,0-7.877-3.151-7.877-7.877c0-36.234,29.145-76.406,69.317-76.406
	s69.317,40.172,69.317,76.406C382.031,501.76,378.88,504.911,374.154,504.911z M260.726,489.157h105.551
	c-3.938-25.994-25.206-52.775-52.775-52.775C285.932,436.382,263.877,463.163,260.726,489.157z"/>
<circle style="fill:#FFFFFF;" cx="191.409" cy="398.572" r="29.932"/>
<path style="fill:#183651;" d="M191.409,436.382c-20.48,0-37.809-17.329-37.809-37.809c0-20.48,17.329-37.809,37.809-37.809
	s37.809,17.329,37.809,37.809C228.431,419.052,211.889,436.382,191.409,436.382z M191.409,376.517
	c-11.815,0-22.055,10.24-22.055,22.055c0,11.815,10.24,22.055,22.055,22.055s22.055-10.24,22.055-22.055
	C212.677,385.969,203.225,376.517,191.409,376.517z"/>
<path style="fill:#FCBD5E;" d="M191.409,428.505c-33.871,0-61.44,35.446-61.44,68.529h122.092
	C252.062,463.163,224.492,428.505,191.409,428.505z"/>
<path style="fill:#183651;" d="M252.062,504.911H129.969c-4.726,0-7.877-3.151-7.877-7.877c0-36.234,29.145-76.406,69.317-76.406
	s69.317,40.172,69.317,76.406C259.938,501.76,256.788,504.911,252.062,504.911z M138.634,489.157h105.551
	c-3.938-25.994-25.206-52.775-52.775-52.775S141.785,463.163,138.634,489.157z"/>
<circle style="fill:#FFFFFF;" cx="69.317" cy="398.572" r="29.932"/>
<path style="fill:#183651;" d="M69.317,436.382c-20.48,0-37.809-17.329-37.809-37.809c0-20.48,17.329-37.809,37.809-37.809
	s37.809,17.329,37.809,37.809C106.338,419.052,89.797,436.382,69.317,436.382z M69.317,376.517
	c-11.815,0-22.055,10.24-22.055,22.055c0,11.815,10.24,22.055,22.055,22.055s22.055-10.24,22.055-22.055
	C90.585,385.969,81.132,376.517,69.317,376.517z"/>
<path style="fill:#FCBD5E;" d="M69.317,428.505c-33.871,0-61.44,35.446-61.44,68.529h122.092
	C129.969,463.163,102.4,428.505,69.317,428.505z"/>
<path style="fill:#183651;" d="M129.969,504.911H7.877c-4.726,0-7.877-3.151-7.877-7.877c0-36.234,29.145-76.406,69.317-76.406
	s69.317,40.172,69.317,76.406C137.846,501.76,134.695,504.911,129.969,504.911z M16.542,489.157h105.551
	c-3.938-25.994-25.206-52.775-52.775-52.775S19.692,463.163,16.542,489.157z"/>
<g>
</g>
<g>
</g>
<g>
</g>
<g>
</g>
<g>
</g>
<g>
</g>
<g>
</g>
<g>
</g>
<g>
</g>
<g>
</g>
<g>
</g>
<g>
</g>
<g>
</g>
<g>
</g>
<g>
</g>
</svg>
